<svg width="708" height="707" viewBox="0 0 708 707" fill="none" xmlns="http://www.w3.org/2000/svg">
<g filter="url(#filter0_d_389_2)">
<path d="M90.2211 193.705C104.776 176.558 197.894 85.9451 204.357 80.4786C210.82 75.012 342.731 49.3558 357.376 49.4863C372.021 49.6167 515.187 81.0015 538.602 102.891C562.016 124.78 639.527 243.865 646.287 287.045C653.047 330.225 620.416 506.832 620.416 506.832C620.416 506.832 500.633 615.009 474.253 626.545C447.872 638.081 313.561 673.886 282.09 665.466C250.618 657.045 172.035 597.646 172.035 597.646C172.035 597.646 63.8534 442.969 58.0075 405.388C52.1617 367.807 75.6664 210.852 90.2211 193.705Z" fill="#A0532A"/>
</g>
<path d="M130.943 242.2C130.943 255.918 119.06 294.326 103.522 310.787C80.7556 341.514 105.003 410.466 125.458 439.73L150.138 505.574L224.175 563.187L292.729 596.108C308.267 593.365 331.12 596.108 355.799 596.108C380.477 596.108 425.928 598.852 454.516 576.904C483.103 554.956 517.586 546.725 523.069 541.239C528.553 535.753 575.169 483.626 575.169 483.626C575.169 483.626 597.106 415.588 597.106 406.809C597.106 398.03 608.075 371.143 616.301 351.939C610.817 329.991 591.622 305.849 591.622 275.122C591.622 244.395 564.2 195.561 547.748 184.587C531.296 173.613 489.625 140.691 487.421 132.461C485.216 124.231 429.836 102.283 413.384 96.796C396.932 91.3092 421.609 105.026 355.799 96.796C289.988 88.5659 259.825 113.257 246.113 118.744C232.402 124.23 227.623 148.922 199.496 157.153C171.368 165.383 130.943 228.483 130.943 242.2Z" fill="#C59132"/>
<circle cx="286.454" cy="154.523" r="5.846" fill="black"/>
<circle cx="324.871" cy="126.963" r="5.846" fill="black"/>
<rect x="319.261" y="144.599" width="7.75488" height="19.3872" rx="3.87744" transform="rotate(37.5242 319.261 144.599)" fill="#8E7744"/>
<rect x="295.624" y="127.288" width="7.75488" height="19.3872" rx="3.87744" transform="rotate(135 295.624 127.288)" fill="#F8F3BC"/>
<circle cx="531.304" cy="455.988" r="5.846" transform="rotate(90 531.304 455.988)" fill="black"/>
<circle cx="558.864" cy="494.405" r="5.846" transform="rotate(90 558.864 494.405)" fill="black"/>
<rect x="541.229" y="488.795" width="7.75489" height="19.3872" rx="3.87744" transform="rotate(127.524 541.229 488.795)" fill="#8E7744"/>
<rect x="558.539" y="465.159" width="7.75488" height="19.3872" rx="3.87744" transform="rotate(-135 558.539 465.159)" fill="#F8F3BC"/>
<circle cx="309.396" cy="551.289" r="5.846" transform="rotate(-171.993 309.396 551.289)" fill="black"/>
<circle cx="267.515" cy="573.229" r="5.846" transform="rotate(-171.993 267.515 573.229)" fill="black"/>
<rect x="275.527" y="556.547" width="7.75489" height="19.3872" rx="3.87744" transform="rotate(-134.469 275.527 556.547)" fill="#8E7744"/>
<rect x="296.521" y="576.982" width="7.75488" height="19.3872" rx="3.87744" transform="rotate(-36.9928 296.521 576.982)" fill="#F8F3BC"/>
<circle cx="413.442" cy="123.261" r="5.846" transform="rotate(-171.993 413.442 123.261)" fill="black"/>
<circle cx="371.561" cy="145.2" r="5.846" transform="rotate(-171.993 371.561 145.2)" fill="black"/>
<rect x="379.573" y="128.519" width="7.75489" height="19.3872" rx="3.87744" transform="rotate(-134.469 379.573 128.519)" fill="#8E7744"/>
<rect x="400.567" y="148.953" width="7.75488" height="19.3872" rx="3.87744" transform="rotate(-36.9928 400.567 148.953)" fill="#F8F3BC"/>
<circle cx="484.65" cy="180.824" r="5.846" transform="rotate(-84.6165 484.65 180.824)" fill="black"/>
<circle cx="460.816" cy="139.992" r="5.846" transform="rotate(-84.6165 460.816 139.992)" fill="black"/>
<rect x="477.847" y="147.231" width="7.75489" height="19.3872" rx="3.87744" transform="rotate(-47.0924 477.847 147.231)" fill="#8E7744"/>
<rect x="458.396" y="169.139" width="7.75488" height="19.3872" rx="3.87744" transform="rotate(50.3835 458.396 169.139)" fill="#F8F3BC"/>
<circle cx="500.384" cy="209.471" r="5.846" transform="rotate(21.6628 500.384 209.471)" fill="black"/>
<circle cx="546.261" cy="198.04" r="5.846" transform="rotate(21.6628 546.261 198.04)" fill="black"/>
<rect x="534.538" y="212.358" width="7.75489" height="19.3872" rx="3.87744" transform="rotate(59.187 534.538 212.358)" fill="#8E7744"/>
<rect x="518.961" y="187.546" width="7.75488" height="19.3872" rx="3.87744" transform="rotate(156.663 518.961 187.546)" fill="#F8F3BC"/>
<circle cx="543.966" cy="246.367" r="5.846" transform="rotate(107.227 543.966 246.367)" fill="black"/>
<circle cx="558.911" cy="291.222" r="5.846" transform="rotate(107.227 558.911 291.222)" fill="black"/>
<rect x="543.729" y="280.641" width="7.75489" height="19.3872" rx="3.87744" transform="rotate(144.751 543.729 280.641)" fill="#8E7744"/>
<rect x="567.263" y="263.192" width="7.75488" height="19.3872" rx="3.87744" transform="rotate(-117.773 567.263 263.192)" fill="#F8F3BC"/>
<circle cx="588.727" cy="327.689" r="5.846" transform="rotate(167.227 588.727 327.689)" fill="black"/>
<circle cx="557.354" cy="363.06" r="5.846" transform="rotate(167.227 557.354 363.06)" fill="black"/>
<rect x="558.926" y="344.62" width="7.75489" height="19.3872" rx="3.87744" transform="rotate(-155.249 558.926 344.62)" fill="#8E7744"/>
<rect x="585.805" y="356.276" width="7.75488" height="19.3872" rx="3.87744" transform="rotate(-57.7733 585.805 356.276)" fill="#F8F3BC"/>
<circle cx="581.867" cy="420.863" r="5.846" transform="rotate(-102.773 581.867 420.863)" fill="black"/>
<circle cx="546.497" cy="389.489" r="5.846" transform="rotate(-102.773 546.497 389.489)" fill="black"/>
<rect x="564.936" y="391.062" width="7.75489" height="19.3872" rx="3.87744" transform="rotate(-65.2492 564.936 391.062)" fill="#8E7744"/>
<rect x="553.279" y="417.94" width="7.75488" height="19.3872" rx="3.87744" transform="rotate(32.2267 553.279 417.94)" fill="#F8F3BC"/>
<circle cx="383.102" cy="582.881" r="5.846" transform="rotate(-102.773 383.102 582.881)" fill="black"/>
<circle cx="347.733" cy="551.507" r="5.846" transform="rotate(-102.773 347.733 551.507)" fill="black"/>
<rect x="366.171" y="553.08" width="7.75489" height="19.3872" rx="3.87744" transform="rotate(-65.2492 366.171 553.08)" fill="#8E7744"/>
<rect x="354.515" y="579.958" width="7.75488" height="19.3872" rx="3.87744" transform="rotate(32.2267 354.515 579.958)" fill="#F8F3BC"/>
<circle cx="435.646" cy="574.039" r="5.846" transform="rotate(-42.7733 435.646 574.039)" fill="black"/>
<circle cx="445.131" cy="527.72" r="5.846" transform="rotate(-42.7733 445.131 527.72)" fill="black"/>
<rect x="452.989" y="544.475" width="7.75489" height="19.3872" rx="3.87744" transform="rotate(-5.24915 452.989 544.475)" fill="#8E7744"/>
<rect x="423.883" y="547.819" width="7.75489" height="19.3872" rx="3.87744" transform="rotate(92.2267 423.883 547.819)" fill="#F8F3BC"/>
<circle cx="478.082" cy="510.608" r="5.846" transform="rotate(62.2267 478.082 510.608)" fill="black"/>
<circle cx="520.367" cy="531.758" r="5.846" transform="rotate(62.2267 520.367 531.758)" fill="black"/>
<rect x="502.149" y="535.012" width="7.75489" height="19.3872" rx="3.87744" transform="rotate(99.7508 502.149 535.012)" fill="#8E7744"/>
<rect x="506.452" y="506.032" width="7.75489" height="19.3872" rx="3.87744" transform="rotate(-162.773 506.452 506.032)" fill="#F8F3BC"/>
<circle cx="210.001" cy="528.146" r="5.846" transform="rotate(62.2267 210.001 528.146)" fill="black"/>
<circle cx="252.287" cy="549.296" r="5.846" transform="rotate(62.2267 252.287 549.296)" fill="black"/>
<rect x="234.068" y="552.55" width="7.75489" height="19.3872" rx="3.87744" transform="rotate(99.7508 234.068 552.55)" fill="#8E7744"/>
<rect x="238.372" y="523.57" width="7.75489" height="19.3872" rx="3.87744" transform="rotate(-162.773 238.372 523.57)" fill="#F8F3BC"/>
<circle cx="184.043" cy="463.05" r="5.846" transform="rotate(152.227 184.043 463.05)" fill="black"/>
<circle cx="162.892" cy="505.334" r="5.846" transform="rotate(152.227 162.892 505.334)" fill="black"/>
<rect x="159.639" y="487.117" width="7.75489" height="19.3872" rx="3.87744" transform="rotate(-170.249 159.639 487.117)" fill="#8E7744"/>
<rect x="188.618" y="491.419" width="7.75489" height="19.3872" rx="3.87744" transform="rotate(-72.7733 188.618 491.419)" fill="#F8F3BC"/>
<circle cx="173.715" cy="414.331" r="5.846" transform="rotate(-128.177 173.715 414.331)" fill="black"/>
<circle cx="128.306" cy="401.165" r="5.846" transform="rotate(-128.177 128.306 401.165)" fill="black"/>
<rect x="145.636" y="394.675" width="7.75489" height="19.3872" rx="3.87744" transform="rotate(-90.6526 145.636 394.675)" fill="#8E7744"/>
<rect x="146.638" y="423.954" width="7.75489" height="19.3872" rx="3.87744" transform="rotate(6.82324 146.638 423.954)" fill="#F8F3BC"/>
<circle cx="141.525" cy="363.349" r="5.846" transform="rotate(-60.3198 141.525 363.349)" fill="black"/>
<circle cx="136.605" cy="316.327" r="5.846" transform="rotate(-60.3198 136.605 316.327)" fill="black"/>
<rect x="149.148" y="329.933" width="7.75489" height="19.3872" rx="3.87744" transform="rotate(-22.7956 149.148 329.933)" fill="#8E7744"/>
<rect x="122.406" y="341.897" width="7.75489" height="19.3872" rx="3.87744" transform="rotate(74.6802 122.406 341.897)" fill="#F8F3BC"/>
<circle cx="131.834" cy="270.794" r="5.846" transform="rotate(37.1759 131.834 270.794)" fill="black"/>
<circle cx="179.096" cy="272.05" r="5.846" transform="rotate(37.1759 179.096 272.05)" fill="black"/>
<rect x="163.97" y="282.711" width="7.75489" height="19.3872" rx="3.87744" transform="rotate(74.7001 163.97 282.711)" fill="#8E7744"/>
<rect x="155.597" y="254.636" width="7.75489" height="19.3872" rx="3.87744" transform="rotate(172.176 155.597 254.636)" fill="#F8F3BC"/>
<circle cx="200.534" cy="173.687" r="5.846" transform="rotate(146.069 200.534 173.687)" fill="black"/>
<circle cx="184.042" cy="217.997" r="5.846" transform="rotate(146.069 184.042 217.997)" fill="black"/>
<rect x="178.853" y="200.234" width="7.75488" height="19.3872" rx="3.87744" transform="rotate(-176.407 178.853 200.234)" fill="#8E7744"/>
<rect x="208.126" y="201.403" width="7.75488" height="19.3872" rx="3.87744" transform="rotate(-78.9312 208.126 201.403)" fill="#F8F3BC"/>
<circle cx="225.487" cy="153.677" r="5.846" transform="rotate(69.6552 225.487 153.677)" fill="black"/>
<circle cx="264.682" cy="180.116" r="5.846" transform="rotate(69.6552 264.682 180.116)" fill="black"/>
<rect x="246.197" y="180.987" width="7.75488" height="19.3872" rx="3.87744" transform="rotate(107.179 246.197 180.987)" fill="#8E7744"/>
<rect x="254.209" y="152.807" width="7.75489" height="19.3872" rx="3.87744" transform="rotate(-155.345 254.209 152.807)" fill="#F8F3BC"/>
<defs>
<filter id="filter0_d_389_2" x="53.0923" y="49.4857" width="598.117" height="625.249" filterUnits="userSpaceOnUse" color-interpolation-filters="sRGB">
<feFlood flood-opacity="0" result="BackgroundImageFix"/>
<feColorMatrix in="SourceAlpha" type="matrix" values="0 0 0 0 0 0 0 0 0 0 0 0 0 0 0 0 0 0 127 0" result="hardAlpha"/>
<feOffset dy="4"/>
<feGaussianBlur stdDeviation="2"/>
<feComposite in2="hardAlpha" operator="out"/>
<feColorMatrix type="matrix" values="0 0 0 0 0 0 0 0 0 0 0 0 0 0 0 0 0 0 0.25 0"/>
<feBlend mode="normal" in2="BackgroundImageFix" result="effect1_dropShadow_389_2"/>
<feBlend mode="normal" in="SourceGraphic" in2="effect1_dropShadow_389_2" result="shape"/>
</filter>
</defs>
</svg>
